<svg width="84" height="86" viewBox="0 0 84 86" fill="none" xmlns="http://www.w3.org/2000/svg">
<path d="M77.9818 37.7777C77.5262 34.9383 75.3685 32.6609 72.5918 32.0276C72.6926 31.0536 72.746 30.0709 72.746 29.0819C72.746 21.2785 69.697 13.9513 64.1611 8.45084C58.6714 2.99639 51.4 0 43.6656 0C43.6014 0 43.5359 0.000335938 43.4717 0.000671875C37.8985 0.0367852 32.4978 1.64458 27.8537 4.65005C27.2688 5.02865 27.1015 5.8097 27.4799 6.3944C27.8584 6.97961 28.6396 7.1464 29.2243 6.7683C31.724 5.15043 34.4656 3.98036 37.3375 3.28228C36.0877 10.7482 35.4039 20.4257 35.4039 30.7898C35.4039 42.6071 36.2996 53.5588 37.8759 61.2056H33.8767C33.5629 61.2056 33.3076 60.9503 33.3076 60.6362C33.3076 56.6874 31.4084 52.9715 28.2272 50.6953C21.8819 46.1553 17.8775 39.0588 17.209 31.3692H18.5551C22.2679 31.3692 25.2883 28.3488 25.2883 24.636C25.2883 21.3846 23.0121 18.678 19.9326 18.0442C19.8978 17.8267 19.8523 17.6129 19.7981 17.4024C20.8657 15.2131 22.2358 13.1656 23.8883 11.3255C24.3539 10.8073 24.3109 10.0098 23.7925 9.54415C23.2742 9.07837 22.4767 9.12154 22.0112 9.63989C20.6182 11.1911 19.41 12.8775 18.3928 14.6645C17.0993 13.1098 15.1514 12.1179 12.9755 12.1179C9.47151 12.1179 6.55641 14.6892 6.0184 18.044C2.93853 18.678 0.66272 21.3844 0.66272 24.6358C0.66272 28.3486 3.68313 31.369 7.39608 31.369H14.6787C15.3533 39.8723 19.7524 47.7335 26.7592 52.7469C29.2799 54.5504 30.7847 57.4997 30.7847 60.6366C30.7847 62.3414 32.1718 63.7284 33.8767 63.7284H35.6261V67.4515H34.9458C33.3866 67.4515 32.1181 68.72 32.1181 70.2793V78.2037C32.1181 82.5027 35.6155 86.0002 39.9147 86.0002H47.4143C50.7696 86.0002 53.7405 83.8643 54.8073 80.6851C55.029 80.0247 54.6732 79.3095 54.0126 79.0881C53.3518 78.8665 52.637 79.2221 52.4156 79.8827C51.694 82.0329 49.6842 83.4774 47.4143 83.4774H39.9147C37.0066 83.4774 34.6408 81.1118 34.6408 78.2037V70.2791C34.6408 70.1112 34.7775 69.9743 34.9456 69.9743H36.8874H50.4411H52.383C52.5511 69.9743 52.6879 70.111 52.6879 70.2791V72.8396C52.6879 73.5364 53.2526 74.1011 53.9493 74.1011C54.6459 74.1011 55.2107 73.5366 55.2107 72.8396V70.2791C55.2107 68.7199 53.9422 67.4514 52.383 67.4514H51.7025V63.7282H53.4521C55.157 63.7282 56.5441 62.3411 56.5441 60.6362C56.5441 57.5053 58.062 54.5465 60.6046 52.7215C61.4864 52.0886 62.3257 51.4094 63.1226 50.6894C63.847 50.9565 64.6294 51.1026 65.4454 51.1026H76.6044C80.3172 51.1026 83.3378 48.0822 83.3378 44.3695C83.3376 41.1181 81.0616 38.4114 77.9818 37.7777ZM7.39575 28.8461C5.07408 28.8459 3.18527 26.957 3.18527 24.6355C3.18527 22.3996 5.00337 20.5127 7.23786 20.4292C7.91578 20.404 8.4521 19.847 8.4521 19.1686C8.4521 19.1627 8.4521 19.1565 8.45193 19.1503C8.45916 16.6623 10.4855 14.6403 12.9752 14.6403C15.4666 14.6403 17.4942 16.6652 17.4984 19.1558C17.4984 19.1602 17.4984 19.1647 17.4984 19.1688C17.4984 19.847 18.0347 20.404 18.7126 20.4294C20.9471 20.5128 22.7651 22.3996 22.7651 24.6356C22.7651 26.9573 20.8762 28.8461 18.5546 28.8461H7.39575ZM49.1797 67.4512H38.1488V63.728H39.436C39.438 63.728 39.4398 63.7285 39.4417 63.7285C39.4445 63.7285 39.4474 63.728 39.4502 63.728H47.8811C47.8829 63.728 47.885 63.7284 47.8868 63.7284C47.8881 63.7284 47.8893 63.728 47.8907 63.728H49.1797V67.4512ZM46.8743 61.2051H40.4542C38.8445 53.713 37.9264 42.7173 37.9264 30.7895C37.9264 20.2839 38.6742 10.1354 39.984 2.77837C41.1393 2.61897 42.3091 2.53079 43.4879 2.52323C43.547 2.52272 43.6059 2.52255 43.6651 2.52255C44.9065 2.52255 46.1344 2.60906 47.3431 2.77535C48.6539 10.1354 49.4017 20.2721 49.4017 30.7893C49.402 42.7168 48.4841 53.7125 46.8743 61.2051ZM59.1335 50.672C55.9323 52.9696 54.0212 56.6947 54.0212 60.6362C54.0212 60.9498 53.7659 61.2051 53.4521 61.2051H49.4529C51.0292 53.5583 51.9249 42.6064 51.9249 30.7893C51.9249 20.5725 51.2245 10.6879 49.9894 3.2769C54.6361 4.40683 58.9022 6.78207 62.3832 10.2406C67.439 15.2638 70.2236 21.955 70.2236 29.0818C70.2236 30.0337 70.1702 30.9795 70.0686 31.9161C67.0016 32.3342 64.556 34.7331 64.0679 37.7772C60.9882 38.4111 58.7122 41.1176 58.7122 44.3689C58.7122 46.3176 59.545 48.0745 60.8725 49.305C60.3135 49.7826 59.7353 50.2401 59.1335 50.672ZM76.6042 48.5799H65.4452C63.1236 48.5799 61.2348 46.6911 61.2348 44.3695C61.2348 42.1336 63.0527 40.2467 65.2872 40.1632C65.9651 40.1378 66.5014 39.581 66.5014 38.9026C66.5014 38.8987 66.5014 38.894 66.5014 38.8896C66.5056 36.399 68.5332 34.3741 71.0247 34.3741C73.5143 34.3741 75.5407 36.3961 75.5479 38.8841C75.5479 38.8903 75.5477 38.8965 75.5477 38.9024C75.5477 39.5807 76.084 40.1378 76.762 40.163C78.9965 40.2465 80.8146 42.1333 80.8146 44.3693C80.8147 46.6911 78.9259 48.5799 76.6042 48.5799Z" fill="black"/>
</svg>
