<svg width="88" height="88" viewBox="0 0 88 88" fill="none" xmlns="http://www.w3.org/2000/svg">
<path d="M84.9623 46.0373L87.8683 38.8909C88.049 38.4464 87.997 37.9433 87.729 37.5452C87.4612 37.1472 87.0147 36.9094 86.5294 36.9094C83.7948 36.9094 81.1169 37.6643 78.785 39.0924L77.274 40.0177C73.9155 42.0747 69.7556 42.0541 66.4173 39.9642L63.5642 38.1781C60.793 36.4432 57.4664 35.8457 54.302 36.4473C55.2032 33.6804 55.6684 30.7721 55.6684 27.8199C55.6684 20.3515 52.7496 13.3402 47.4497 8.07783C42.2 2.86496 35.25 0.0101136 27.8557 0.00135219C27.8196 0.00135219 27.7836 -0.000365735 27.7475 0.000321434C27.7442 0.000321434 27.741 0.000665019 27.7377 0.000665019C27.7073 0.000665019 27.6771 -2.21505e-05 27.6466 0.000149642C12.5274 0.107176 0.137688 12.4948 0.0280845 27.6141C-0.010397 32.9218 1.45104 38.0926 4.25452 42.5674C6.98001 46.918 10.8443 50.4286 15.43 52.7196C17.5891 53.7983 19.0519 55.7977 19.4523 58.1103H18.851C18.1395 58.1103 17.5626 58.6872 17.5626 59.3988C17.5626 60.1103 18.1395 60.6872 18.851 60.6872H19.654L20.4918 69.1622H20.0998C18.7007 69.1622 17.5626 70.3004 17.5626 71.6994V75.6472C17.5626 76.8352 18.3845 77.8323 19.4887 78.1068L20.3652 85.9804C20.4934 87.1317 21.4637 88 22.6221 88H33.7159C34.8743 88 35.8446 87.1317 35.9727 85.9804L36.8492 78.1068C37.9535 77.8323 38.7754 76.8352 38.7754 75.6472V71.6994C38.7754 70.3004 37.6372 69.1622 36.2382 69.1622H35.8461L36.684 60.6872H37.4867C38.1983 60.6872 38.7752 60.1103 38.7752 59.3988C38.7752 58.6872 38.1983 58.1103 37.4867 58.1103H36.244C36.6274 55.9011 37.9846 53.9794 39.9916 52.8691L41.0836 53.5814C44.5931 55.8701 49.0113 56.3092 52.9025 54.7559C55.9452 53.5415 59.42 53.854 62.197 55.5925L65.05 57.3787C66.1266 58.0526 67.2969 58.563 68.5283 58.8954C68.6408 58.9258 68.7538 58.9403 68.8648 58.9403C69.4328 58.9403 69.9528 58.5618 70.1079 57.9873C70.2934 57.3003 69.8868 56.593 69.1998 56.4075C68.2141 56.1414 67.2778 55.7332 66.4171 55.1943L63.5642 53.4082C60.0931 51.2352 55.7503 50.8442 51.947 52.3627C48.8491 53.5994 45.3337 53.2562 42.5325 51.4482C46.1009 49.2276 49.1348 46.2233 51.3928 42.6451C52.0436 41.6138 52.6198 40.5437 53.1257 39.4444C56.1147 38.3313 59.4873 38.6662 62.1969 40.3624L65.05 42.1484C69.2223 44.7603 74.4221 44.7859 78.6197 42.2152L80.1306 41.29C81.5594 40.4148 83.1457 39.8457 84.7939 39.6102L82.3711 45.5678C82.2409 45.8883 82.2449 46.2477 82.3823 46.5652L84.8386 52.2362C82.6993 52.4815 80.6333 53.1905 78.7848 54.3226L77.2739 55.2479C76.2883 55.8514 75.2141 56.2823 74.0811 56.5288C73.3857 56.68 72.9445 57.3663 73.0959 58.0615C73.227 58.6647 73.7607 59.0765 74.3536 59.0765C74.4443 59.0765 74.5364 59.0669 74.6286 59.0468C76.0445 58.7389 77.3873 58.2002 78.6197 57.4455L80.1306 56.5202C82.0573 55.3402 84.27 54.7166 86.5292 54.7166C87.0157 54.7166 87.4656 54.4736 87.7324 54.067C87.9994 53.6604 88.0432 53.151 87.8499 52.705L84.9623 46.0373ZM22.2434 60.6872H25.0139H26.8803V69.1622H23.0813L22.2434 60.6872ZM33.4417 85.4231H22.8959L22.0902 78.1844H34.2476L33.4417 85.4231ZM36.1983 75.6076H35.6874H20.6502H20.1393V71.7391H36.1981V75.6076H36.1983ZM29.4573 69.1622V60.6872H30.682H34.0945L33.2567 69.1622H29.4573ZM39.1215 50.4108C36.0767 51.933 34.0542 54.8116 33.6336 58.1103H32.0145C32.1772 55.6448 32.7934 53.4329 33.6513 52.3743C35.6091 49.9593 37.2272 46.2793 38.3309 41.7325C38.4988 41.041 38.0743 40.3444 37.3826 40.1764C36.6907 40.0087 35.9944 40.4332 35.8265 41.1247C34.8125 45.3025 33.3678 48.6315 31.6492 50.7518C30.4249 52.2623 29.6087 55.0088 29.43 58.1103H27.8476H26.2653C26.0871 55.0079 25.2718 52.2627 24.0488 50.7554C20.5784 46.4776 18.3546 37.3992 18.3832 27.6273C18.387 26.3031 18.4327 24.9692 18.5186 23.6625C18.5652 22.9525 18.0275 22.339 17.3175 22.2923C16.6083 22.2471 15.9938 22.7834 15.9472 23.4935C15.8577 24.8537 15.8105 26.242 15.8064 27.6197C15.7756 38.1084 18.1671 47.5956 22.0478 52.379C22.904 53.4345 23.5188 55.6446 23.6813 58.1105H22.0624C21.6425 54.8107 19.6224 51.9339 16.5815 50.4145C12.4195 48.3353 8.91199 45.1489 6.43801 41.1996C3.89548 37.1408 2.56993 32.4493 2.6048 27.6328C2.69052 15.8334 11.0189 5.86789 22.0763 3.24857C21.5626 3.88111 21.0692 4.60195 20.5999 5.41092C18.7748 8.55748 17.3834 12.87 16.5762 17.882C16.463 18.5847 16.9409 19.2459 17.6433 19.3591C18.3456 19.4721 19.007 18.9944 19.1202 18.2919C20.6004 9.1024 24.1665 2.64008 27.7923 2.57669C28.8312 2.55505 29.8877 3.06424 30.9215 4.08022C34.7443 7.83681 37.3125 17.377 37.3125 27.8199C37.3125 30.5297 37.1432 33.2051 36.8092 35.7716C36.7175 36.4772 37.215 37.1238 37.9207 37.2155C37.9772 37.2228 38.033 37.2264 38.0885 37.2264C38.7261 37.2264 39.2801 36.7533 39.3646 36.1041C39.7128 33.4277 39.8894 30.6405 39.8894 27.8199C39.8894 17.3546 37.4613 7.9483 33.6271 3.23844C38.1311 4.28809 42.2682 6.56451 45.634 9.90639C50.443 14.6815 53.0915 21.0434 53.0915 27.8199C53.0915 32.5983 51.7505 37.2492 49.2135 41.2697C46.7438 45.1836 43.254 48.3446 39.1215 50.4108Z" fill="black"/>
</svg>
