<svg width="86" height="86" viewBox="0 0 86 86" fill="none" xmlns="http://www.w3.org/2000/svg">
<g clip-path="url(#clip0)">
<path d="M78.9818 37.7777C78.5262 34.9383 76.3685 32.6609 73.5918 32.0276C73.6926 31.0536 73.746 30.0709 73.746 29.0819C73.746 21.2785 70.697 13.9513 65.1611 8.45084C59.6714 2.99639 52.4 0 44.6656 0C44.6014 0 44.5359 0.000335938 44.4717 0.000671875C38.8985 0.0367852 33.4978 1.64458 28.8537 4.65005C28.2688 5.02865 28.1015 5.8097 28.4799 6.3944C28.8584 6.97961 29.6396 7.1464 30.2243 6.7683C32.724 5.15043 35.4656 3.98036 38.3375 3.28228C37.0877 10.7482 36.4039 20.4257 36.4039 30.7898C36.4039 42.6071 37.2996 53.5589 38.8759 61.2056H34.8767C34.5629 61.2056 34.3076 60.9503 34.3076 60.6362C34.3076 56.6874 32.4084 52.9715 29.2272 50.6953C22.8819 46.1553 18.8775 39.0588 18.209 31.3692H19.5551C23.2679 31.3692 26.2883 28.3488 26.2883 24.636C26.2883 21.3846 24.0121 18.678 20.9326 18.0442C20.8978 17.8267 20.8523 17.6129 20.7981 17.4024C21.8657 15.2131 23.2358 13.1656 24.8883 11.3255C25.3539 10.8073 25.3109 10.0098 24.7925 9.54415C24.2742 9.07837 23.4767 9.12154 23.0112 9.63989C21.6182 11.1911 20.41 12.8775 19.3928 14.6645C18.0993 13.1098 16.1514 12.1179 13.9755 12.1179C10.4715 12.1179 7.55641 14.6892 7.0184 18.044C3.93853 18.678 1.66272 21.3844 1.66272 24.6358C1.66272 28.3486 4.68313 31.369 8.39608 31.369H15.6787C16.3533 39.8723 20.7524 47.7335 27.7592 52.7469C30.2799 54.5504 31.7847 57.4997 31.7847 60.6365C31.7847 62.3414 33.1718 63.7284 34.8767 63.7284H36.6261V67.4515H35.9458C34.3866 67.4515 33.1181 68.72 33.1181 70.2793V78.2037C33.1181 82.5027 36.6155 86.0002 40.9147 86.0002H48.4143C51.7696 86.0002 54.7405 83.8643 55.8073 80.6851C56.029 80.0247 55.6732 79.3095 55.0126 79.0881C54.3518 78.8665 53.637 79.2221 53.4156 79.8827C52.694 82.0329 50.6842 83.4774 48.4143 83.4774H40.9147C38.0066 83.4774 35.6408 81.1118 35.6408 78.2037V70.2791C35.6408 70.1112 35.7775 69.9743 35.9456 69.9743H37.8874H51.4411H53.383C53.5511 69.9743 53.6879 70.111 53.6879 70.2791V72.8396C53.6879 73.5364 54.2526 74.1011 54.9493 74.1011C55.6459 74.1011 56.2107 73.5365 56.2107 72.8396V70.2791C56.2107 68.7199 54.9422 67.4514 53.383 67.4514H52.7025V63.7282H54.4521C56.157 63.7282 57.5441 62.3411 57.5441 60.6362C57.5441 57.5053 59.062 54.5465 61.6046 52.7215C62.4864 52.0886 63.3257 51.4094 64.1226 50.6894C64.847 50.9565 65.6294 51.1026 66.4454 51.1026H77.6044C81.3172 51.1026 84.3378 48.0822 84.3378 44.3695C84.3376 41.1181 82.0616 38.4114 78.9818 37.7777ZM8.39575 28.8461C6.07408 28.8459 4.18527 26.957 4.18527 24.6355C4.18527 22.3996 6.00337 20.5127 8.23786 20.4292C8.91578 20.404 9.4521 19.847 9.4521 19.1686C9.4521 19.1627 9.4521 19.1565 9.45193 19.1503C9.45916 16.6623 11.4855 14.6403 13.9752 14.6403C16.4666 14.6403 18.4942 16.6652 18.4984 19.1558C18.4984 19.1602 18.4984 19.1647 18.4984 19.1688C18.4984 19.847 19.0347 20.404 19.7126 20.4294C21.9471 20.5128 23.7651 22.3996 23.7651 24.6356C23.7651 26.9573 21.8762 28.8461 19.5546 28.8461H8.39575ZM50.1797 67.4512H39.1488V63.728H40.436C40.438 63.728 40.4398 63.7285 40.4417 63.7285C40.4445 63.7285 40.4474 63.728 40.4502 63.728H48.8811C48.8829 63.728 48.885 63.7284 48.8868 63.7284C48.8881 63.7284 48.8893 63.728 48.8907 63.728H50.1797V67.4512ZM47.8743 61.2051H41.4542C39.8445 53.713 38.9264 42.7173 38.9264 30.7895C38.9264 20.2839 39.6742 10.1354 40.984 2.77837C42.1393 2.61897 43.3091 2.53079 44.4879 2.52323C44.547 2.52272 44.6059 2.52255 44.6651 2.52255C45.9065 2.52255 47.1344 2.60906 48.3431 2.77535C49.6539 10.1354 50.4017 20.2721 50.4017 30.7893C50.402 42.7168 49.4841 53.7125 47.8743 61.2051ZM60.1335 50.672C56.9323 52.9696 55.0212 56.6947 55.0212 60.6362C55.0212 60.9498 54.7659 61.2051 54.4521 61.2051H50.4529C52.0292 53.5583 52.9249 42.6064 52.9249 30.7893C52.9249 20.5725 52.2245 10.6879 50.9894 3.2769C55.6361 4.40683 59.9022 6.78207 63.3832 10.2406C68.439 15.2638 71.2236 21.955 71.2236 29.0818C71.2236 30.0337 71.1702 30.9795 71.0686 31.9161C68.0016 32.3342 65.556 34.7331 65.0679 37.7772C61.9882 38.4111 59.7122 41.1176 59.7122 44.3689C59.7122 46.3175 60.545 48.0745 61.8725 49.305C61.3135 49.7826 60.7353 50.2401 60.1335 50.672ZM77.6042 48.5799H66.4452C64.1236 48.5799 62.2348 46.6911 62.2348 44.3695C62.2348 42.1336 64.0527 40.2467 66.2872 40.1632C66.9651 40.1378 67.5014 39.581 67.5014 38.9026C67.5014 38.8987 67.5014 38.894 67.5014 38.8896C67.5056 36.399 69.5332 34.3741 72.0247 34.3741C74.5143 34.3741 76.5407 36.3961 76.5479 38.8841C76.5479 38.8903 76.5477 38.8965 76.5477 38.9024C76.5477 39.5807 77.084 40.1378 77.762 40.163C79.9965 40.2465 81.8146 42.1333 81.8146 44.3693C81.8147 46.6911 79.9259 48.5799 77.6042 48.5799Z" fill="black"/>
<path d="M48 61H42L40.5 53.5L39 39.5V27.5V13.5L40.5 3H48L51 25.5L49.5 45.5V53.5L48 61Z" fill="#406AFF" stroke="black"/>
</g>
<defs>
<clipPath id="clip0">
<rect width="86" height="86" fill="white"/>
</clipPath>
</defs>
</svg>
