<svg width="30" height="42" viewBox="0 0 30 42" fill="none" xmlns="http://www.w3.org/2000/svg">
<path d="M15 0C6.79258 0 0.115479 6.6771 0.115479 14.8845C0.115479 19.7971 2.52506 24.3669 6.56945 27.1508L8.08645 30.9665C8.08678 30.9674 8.08736 30.9681 8.08768 30.969C8.08826 30.9705 8.08867 30.972 8.08924 30.9734L9.62831 34.7114V36.6278C9.62831 36.9676 9.90369 37.243 10.2435 37.243H10.3079V40.0258C10.3079 41.1145 11.1936 42 12.2821 42H17.718C18.8065 42 19.6921 41.1144 19.6921 40.0258V37.243H19.7564C20.0962 37.243 20.3716 36.9676 20.3716 36.6278V34.7112L21.9108 30.9734C21.9113 30.9721 21.9116 30.9709 21.9122 30.9696C21.9126 30.9685 21.9132 30.9675 21.9137 30.9665L23.4306 27.1507C27.4749 24.3668 29.8845 19.7971 29.8845 14.8845C29.8845 6.6771 23.2074 0 15 0ZM9.57688 31.3544H14.3848V33.9743H10.6556L9.57688 31.3544ZM18.4616 40.0258C18.4616 40.4359 18.1281 40.7695 17.718 40.7695H12.2821C11.872 40.7695 11.5384 40.4359 11.5384 40.0258V37.243H14.3847V37.9874C14.3847 38.3271 14.66 38.6026 14.9999 38.6026C15.3397 38.6026 15.6151 38.3271 15.6151 37.9874V37.243H18.4616V40.0258ZM19.1413 36.0125H19.077H10.9232H10.8588V35.2048H14.9969C14.998 35.2048 14.9991 35.2049 15.0001 35.2049C15.0012 35.2049 15.0023 35.2048 15.0033 35.2048H19.1413V36.0125ZM19.3445 33.9744H15.6154V31.3545H20.4233L19.3445 33.9744ZM20.9245 30.124H9.07559L7.97908 27.3659H22.0209L20.9245 30.124ZM22.7358 26.1354H7.26409C3.72485 23.6978 1.5525 19.7694 1.36129 15.4998H4.01812C4.35797 15.4998 4.63335 15.2244 4.63335 14.8846C4.63335 14.5447 4.35797 14.2693 4.01812 14.2693H1.36047C1.68334 7.02491 7.67737 1.23047 15 1.23047C22.3226 1.23047 28.3166 7.02491 28.6395 14.2693H6.47651C6.13665 14.2693 5.86128 14.5446 5.86128 14.8845C5.86128 15.2243 6.13665 15.4997 6.47651 15.4997H28.6386C28.4474 19.7693 26.275 23.6977 22.7358 26.1354Z" fill="black"/>
</svg>
