<svg width="58" height="58" viewBox="0 0 58 58" fill="none" xmlns="http://www.w3.org/2000/svg">
<g clip-path="url(#clip0)">
<path d="M37.5814 1.29095C34.8126 0.43432 31.9254 0 29 0C21.2538 0 13.9713 3.01657 8.49394 8.49383C3.01657 13.9713 0 21.2538 0 29C0 41.4595 7.92685 52.5048 19.7248 56.4847C19.815 56.5152 19.9067 56.5296 19.997 56.5296C20.3522 56.5296 20.6837 56.3055 20.8034 55.9503C20.9539 55.5048 20.7145 55.0218 20.2691 54.8715C9.16377 51.1253 1.7025 40.7283 1.7025 29C1.7025 21.7087 4.54201 14.8536 9.69778 9.69778C14.8536 4.54201 21.7087 1.70262 29 1.70262C31.7547 1.70262 34.4725 2.11134 37.0782 2.91745C37.5278 3.05667 38.0042 2.80496 38.143 2.3558C38.282 1.90664 38.0306 1.42984 37.5814 1.29095Z" fill="black"/>
<path d="M53.2957 13.16C50.2973 8.57008 46.087 4.93466 41.1199 2.6466C40.6928 2.44972 40.1872 2.63663 39.9906 3.0637C39.7939 3.49078 39.9806 3.99635 40.4077 4.19301C45.0836 6.34694 49.0474 9.76961 51.8704 14.0912C54.7666 18.5247 56.2974 23.6801 56.2974 29.0001C56.2974 36.2915 53.458 43.1465 48.3021 48.3023C43.1463 53.458 36.2912 56.2974 28.9999 56.2974C27.27 56.2974 25.5392 56.1346 23.8556 55.8136C23.3939 55.7249 22.948 56.0284 22.8599 56.4903C22.7719 56.9522 23.0748 57.398 23.5367 57.4861C25.3252 57.827 27.1633 58 28.9999 58C36.7461 58 44.0286 54.9836 49.5061 49.5062C54.9833 44.0287 57.9999 36.7462 57.9999 29C57.9999 23.3485 56.3732 17.8712 53.2957 13.16Z" fill="black"/>
<path d="M39.9193 28.1487H29.8513V18.0807C29.8513 17.6106 29.4702 17.2294 29 17.2294C28.5299 17.2294 28.1487 17.6105 28.1487 18.0807V28.1487H18.0808C17.6107 28.1487 17.2295 28.5298 17.2295 29C17.2295 29.4701 17.6106 29.8513 18.0808 29.8513H28.1488V39.9192C28.1487 40.3894 28.5299 40.7705 29 40.7705C29.4701 40.7705 29.8513 40.3894 29.8513 39.9192V29.8513H39.9193C40.3894 29.8513 40.7706 29.4701 40.7706 29C40.7706 28.5299 40.3895 28.1487 39.9193 28.1487Z" fill="black"/>
</g>
<defs>
<clipPath id="clip0">
<rect width="58" height="58" fill="white"/>
</clipPath>
</defs>
</svg>
